<mxfile host="app.diagrams.net" modified="2021-01-31T13:30:49.062Z" agent="5.0 (Macintosh; Intel Mac OS X 10_15_6) AppleWebKit/605.1.15 (KHTML, like Gecko) Version/14.0.2 Safari/605.1.15" etag="6dsM3btn-KGm07dk4hDT" version="14.2.9" type="github">
  <diagram id="C5RBs43oDa-KdzZeNtuy" name="Page-1">
    <mxGraphModel dx="946" dy="645" grid="1" gridSize="10" guides="1" tooltips="1" connect="1" arrows="1" fold="1" page="1" pageScale="1" pageWidth="1169" pageHeight="1654" math="0" shadow="0">
      <root>
        <mxCell id="WIyWlLk6GJQsqaUBKTNV-0" />
        <mxCell id="WIyWlLk6GJQsqaUBKTNV-1" parent="WIyWlLk6GJQsqaUBKTNV-0" />
        <mxCell id="OIPn1_da_YWg9B3JuE8C-0" value="START" style="ellipse;whiteSpace=wrap;html=1;" vertex="1" parent="WIyWlLk6GJQsqaUBKTNV-1">
          <mxGeometry x="374" y="30" width="120" height="80" as="geometry" />
        </mxCell>
        <mxCell id="OIPn1_da_YWg9B3JuE8C-1" value="" style="edgeStyle=orthogonalEdgeStyle;rounded=0;orthogonalLoop=1;jettySize=auto;html=1;" edge="1" parent="WIyWlLk6GJQsqaUBKTNV-1" source="OIPn1_da_YWg9B3JuE8C-2" target="OIPn1_da_YWg9B3JuE8C-8">
          <mxGeometry relative="1" as="geometry" />
        </mxCell>
        <mxCell id="OIPn1_da_YWg9B3JuE8C-2" value="모임주" style="rounded=0;whiteSpace=wrap;html=1;" vertex="1" parent="WIyWlLk6GJQsqaUBKTNV-1">
          <mxGeometry x="160" y="110" width="120" height="60" as="geometry" />
        </mxCell>
        <mxCell id="OIPn1_da_YWg9B3JuE8C-3" value="" style="edgeStyle=orthogonalEdgeStyle;rounded=0;orthogonalLoop=1;jettySize=auto;html=1;" edge="1" parent="WIyWlLk6GJQsqaUBKTNV-1" source="OIPn1_da_YWg9B3JuE8C-4">
          <mxGeometry relative="1" as="geometry">
            <mxPoint x="650" y="200" as="targetPoint" />
          </mxGeometry>
        </mxCell>
        <mxCell id="OIPn1_da_YWg9B3JuE8C-4" value="초대멤버&lt;br&gt;(미가입 고객)" style="rounded=0;whiteSpace=wrap;html=1;" vertex="1" parent="WIyWlLk6GJQsqaUBKTNV-1">
          <mxGeometry x="590" y="110" width="120" height="60" as="geometry" />
        </mxCell>
        <mxCell id="OIPn1_da_YWg9B3JuE8C-5" value="" style="endArrow=classic;html=1;exitX=0;exitY=0.5;exitDx=0;exitDy=0;entryX=0.5;entryY=0;entryDx=0;entryDy=0;" edge="1" parent="WIyWlLk6GJQsqaUBKTNV-1" source="OIPn1_da_YWg9B3JuE8C-0" target="OIPn1_da_YWg9B3JuE8C-2">
          <mxGeometry width="50" height="50" relative="1" as="geometry">
            <mxPoint x="400" y="340" as="sourcePoint" />
            <mxPoint x="450" y="290" as="targetPoint" />
            <Array as="points">
              <mxPoint x="220" y="70" />
            </Array>
          </mxGeometry>
        </mxCell>
        <mxCell id="OIPn1_da_YWg9B3JuE8C-6" value="" style="endArrow=classic;html=1;exitX=1;exitY=0.5;exitDx=0;exitDy=0;entryX=0.5;entryY=0;entryDx=0;entryDy=0;" edge="1" parent="WIyWlLk6GJQsqaUBKTNV-1" source="OIPn1_da_YWg9B3JuE8C-0" target="OIPn1_da_YWg9B3JuE8C-4">
          <mxGeometry width="50" height="50" relative="1" as="geometry">
            <mxPoint x="400" y="340" as="sourcePoint" />
            <mxPoint x="450" y="290" as="targetPoint" />
            <Array as="points">
              <mxPoint x="650" y="70" />
            </Array>
          </mxGeometry>
        </mxCell>
        <mxCell id="OIPn1_da_YWg9B3JuE8C-7" value="" style="edgeStyle=orthogonalEdgeStyle;rounded=0;orthogonalLoop=1;jettySize=auto;html=1;" edge="1" parent="WIyWlLk6GJQsqaUBKTNV-1" source="OIPn1_da_YWg9B3JuE8C-8" target="OIPn1_da_YWg9B3JuE8C-11">
          <mxGeometry relative="1" as="geometry" />
        </mxCell>
        <mxCell id="OIPn1_da_YWg9B3JuE8C-8" value="모임통장 계좌관리" style="rounded=0;whiteSpace=wrap;html=1;" vertex="1" parent="WIyWlLk6GJQsqaUBKTNV-1">
          <mxGeometry x="160" y="200" width="120" height="60" as="geometry" />
        </mxCell>
        <mxCell id="OIPn1_da_YWg9B3JuE8C-9" value="" style="edgeStyle=orthogonalEdgeStyle;rounded=0;orthogonalLoop=1;jettySize=auto;html=1;" edge="1" parent="WIyWlLk6GJQsqaUBKTNV-1" source="OIPn1_da_YWg9B3JuE8C-11" target="OIPn1_da_YWg9B3JuE8C-13">
          <mxGeometry relative="1" as="geometry" />
        </mxCell>
        <mxCell id="OIPn1_da_YWg9B3JuE8C-10" value="" style="edgeStyle=orthogonalEdgeStyle;rounded=0;orthogonalLoop=1;jettySize=auto;html=1;" edge="1" parent="WIyWlLk6GJQsqaUBKTNV-1" source="OIPn1_da_YWg9B3JuE8C-11" target="OIPn1_da_YWg9B3JuE8C-14">
          <mxGeometry relative="1" as="geometry" />
        </mxCell>
        <mxCell id="OIPn1_da_YWg9B3JuE8C-11" value="친구 초대" style="rounded=0;whiteSpace=wrap;html=1;" vertex="1" parent="WIyWlLk6GJQsqaUBKTNV-1">
          <mxGeometry x="160" y="290" width="120" height="60" as="geometry" />
        </mxCell>
        <mxCell id="OIPn1_da_YWg9B3JuE8C-12" value="" style="edgeStyle=orthogonalEdgeStyle;rounded=0;orthogonalLoop=1;jettySize=auto;html=1;" edge="1" parent="WIyWlLk6GJQsqaUBKTNV-1" source="OIPn1_da_YWg9B3JuE8C-13" target="OIPn1_da_YWg9B3JuE8C-17">
          <mxGeometry relative="1" as="geometry" />
        </mxCell>
        <mxCell id="OIPn1_da_YWg9B3JuE8C-13" value="친구 선택" style="whiteSpace=wrap;html=1;rounded=0;" vertex="1" parent="WIyWlLk6GJQsqaUBKTNV-1">
          <mxGeometry x="160" y="380" width="120" height="60" as="geometry" />
        </mxCell>
        <mxCell id="OIPn1_da_YWg9B3JuE8C-14" value="채팅방 선택" style="whiteSpace=wrap;html=1;rounded=0;" vertex="1" parent="WIyWlLk6GJQsqaUBKTNV-1">
          <mxGeometry y="290" width="120" height="60" as="geometry" />
        </mxCell>
        <mxCell id="OIPn1_da_YWg9B3JuE8C-15" value="" style="edgeStyle=orthogonalEdgeStyle;rounded=0;orthogonalLoop=1;jettySize=auto;html=1;entryX=0;entryY=0.5;entryDx=0;entryDy=0;exitX=1;exitY=0.5;exitDx=0;exitDy=0;" edge="1" parent="WIyWlLk6GJQsqaUBKTNV-1" source="OIPn1_da_YWg9B3JuE8C-42" target="OIPn1_da_YWg9B3JuE8C-38">
          <mxGeometry relative="1" as="geometry">
            <mxPoint x="590" y="240" as="targetPoint" />
            <Array as="points">
              <mxPoint x="450" y="600" />
              <mxPoint x="450" y="230" />
            </Array>
          </mxGeometry>
        </mxCell>
        <mxCell id="OIPn1_da_YWg9B3JuE8C-16" value="" style="edgeStyle=orthogonalEdgeStyle;rounded=0;orthogonalLoop=1;jettySize=auto;html=1;" edge="1" parent="WIyWlLk6GJQsqaUBKTNV-1" source="OIPn1_da_YWg9B3JuE8C-17" target="OIPn1_da_YWg9B3JuE8C-42">
          <mxGeometry relative="1" as="geometry" />
        </mxCell>
        <mxCell id="OIPn1_da_YWg9B3JuE8C-17" value="초대하기" style="whiteSpace=wrap;html=1;rounded=0;" vertex="1" parent="WIyWlLk6GJQsqaUBKTNV-1">
          <mxGeometry x="160" y="470" width="120" height="60" as="geometry" />
        </mxCell>
        <mxCell id="OIPn1_da_YWg9B3JuE8C-18" value="" style="endArrow=classic;html=1;exitX=0.5;exitY=1;exitDx=0;exitDy=0;entryX=0;entryY=0.5;entryDx=0;entryDy=0;rounded=0;" edge="1" parent="WIyWlLk6GJQsqaUBKTNV-1" source="OIPn1_da_YWg9B3JuE8C-14" target="OIPn1_da_YWg9B3JuE8C-17">
          <mxGeometry width="50" height="50" relative="1" as="geometry">
            <mxPoint x="420" y="420" as="sourcePoint" />
            <mxPoint x="470" y="370" as="targetPoint" />
            <Array as="points">
              <mxPoint x="60" y="500" />
            </Array>
          </mxGeometry>
        </mxCell>
        <mxCell id="OIPn1_da_YWg9B3JuE8C-37" value="" style="edgeStyle=orthogonalEdgeStyle;rounded=0;orthogonalLoop=1;jettySize=auto;html=1;" edge="1" parent="WIyWlLk6GJQsqaUBKTNV-1" source="OIPn1_da_YWg9B3JuE8C-38">
          <mxGeometry relative="1" as="geometry">
            <mxPoint x="650" y="290" as="targetPoint" />
          </mxGeometry>
        </mxCell>
        <mxCell id="OIPn1_da_YWg9B3JuE8C-38" value="초대 메세지 확인" style="rounded=0;whiteSpace=wrap;html=1;" vertex="1" parent="WIyWlLk6GJQsqaUBKTNV-1">
          <mxGeometry x="590" y="200" width="120" height="60" as="geometry" />
        </mxCell>
        <mxCell id="OIPn1_da_YWg9B3JuE8C-41" value="" style="edgeStyle=orthogonalEdgeStyle;rounded=0;orthogonalLoop=1;jettySize=auto;html=1;" edge="1" parent="WIyWlLk6GJQsqaUBKTNV-1" source="OIPn1_da_YWg9B3JuE8C-42" target="OIPn1_da_YWg9B3JuE8C-43">
          <mxGeometry relative="1" as="geometry" />
        </mxCell>
        <mxCell id="OIPn1_da_YWg9B3JuE8C-42" value="*멤버 수가&lt;br&gt;100명을&lt;br&gt;초과 하는지?" style="rhombus;whiteSpace=wrap;html=1;rounded=0;" vertex="1" parent="WIyWlLk6GJQsqaUBKTNV-1">
          <mxGeometry x="160" y="560" width="120" height="80" as="geometry" />
        </mxCell>
        <mxCell id="OIPn1_da_YWg9B3JuE8C-43" value="END" style="ellipse;whiteSpace=wrap;html=1;rounded=0;" vertex="1" parent="WIyWlLk6GJQsqaUBKTNV-1">
          <mxGeometry x="160" y="670" width="120" height="80" as="geometry" />
        </mxCell>
        <mxCell id="OIPn1_da_YWg9B3JuE8C-44" value="F" style="text;html=1;strokeColor=none;fillColor=none;align=center;verticalAlign=middle;whiteSpace=wrap;rounded=0;" vertex="1" parent="WIyWlLk6GJQsqaUBKTNV-1">
          <mxGeometry x="280" y="580" width="40" height="20" as="geometry" />
        </mxCell>
        <mxCell id="OIPn1_da_YWg9B3JuE8C-45" value="T" style="text;html=1;strokeColor=none;fillColor=none;align=center;verticalAlign=middle;whiteSpace=wrap;rounded=0;" vertex="1" parent="WIyWlLk6GJQsqaUBKTNV-1">
          <mxGeometry x="220" y="640" width="40" height="20" as="geometry" />
        </mxCell>
        <mxCell id="OIPn1_da_YWg9B3JuE8C-51" value="&lt;font style=&quot;font-size: 10px&quot;&gt;*이 때의 멤버 수는 &amp;nbsp;현재 모임통장에 가입한 멤버와 초대에 응답하지 않은 멤버 수를 합한 것을 의미&lt;/font&gt;" style="text;html=1;strokeColor=none;fillColor=none;align=center;verticalAlign=middle;whiteSpace=wrap;rounded=0;" vertex="1" parent="WIyWlLk6GJQsqaUBKTNV-1">
          <mxGeometry x="40" y="560" width="150" height="20" as="geometry" />
        </mxCell>
        <mxCell id="OIPn1_da_YWg9B3JuE8C-59" value="" style="edgeStyle=orthogonalEdgeStyle;rounded=0;orthogonalLoop=1;jettySize=auto;html=1;" edge="1" parent="WIyWlLk6GJQsqaUBKTNV-1" source="OIPn1_da_YWg9B3JuE8C-57" target="OIPn1_da_YWg9B3JuE8C-58">
          <mxGeometry relative="1" as="geometry" />
        </mxCell>
        <mxCell id="OIPn1_da_YWg9B3JuE8C-57" value="어플 설치" style="rounded=0;whiteSpace=wrap;html=1;" vertex="1" parent="WIyWlLk6GJQsqaUBKTNV-1">
          <mxGeometry x="590" y="290" width="120" height="60" as="geometry" />
        </mxCell>
        <mxCell id="OIPn1_da_YWg9B3JuE8C-61" value="" style="edgeStyle=orthogonalEdgeStyle;rounded=0;orthogonalLoop=1;jettySize=auto;html=1;" edge="1" parent="WIyWlLk6GJQsqaUBKTNV-1" source="OIPn1_da_YWg9B3JuE8C-58" target="OIPn1_da_YWg9B3JuE8C-60">
          <mxGeometry relative="1" as="geometry" />
        </mxCell>
        <mxCell id="OIPn1_da_YWg9B3JuE8C-63" value="" style="edgeStyle=orthogonalEdgeStyle;rounded=0;orthogonalLoop=1;jettySize=auto;html=1;" edge="1" parent="WIyWlLk6GJQsqaUBKTNV-1" source="OIPn1_da_YWg9B3JuE8C-58" target="OIPn1_da_YWg9B3JuE8C-62">
          <mxGeometry relative="1" as="geometry" />
        </mxCell>
        <mxCell id="OIPn1_da_YWg9B3JuE8C-58" value="권한 허용" style="whiteSpace=wrap;html=1;rounded=0;" vertex="1" parent="WIyWlLk6GJQsqaUBKTNV-1">
          <mxGeometry x="590" y="380" width="120" height="60" as="geometry" />
        </mxCell>
        <mxCell id="OIPn1_da_YWg9B3JuE8C-65" value="" style="edgeStyle=orthogonalEdgeStyle;rounded=0;orthogonalLoop=1;jettySize=auto;html=1;" edge="1" parent="WIyWlLk6GJQsqaUBKTNV-1" source="OIPn1_da_YWg9B3JuE8C-60" target="OIPn1_da_YWg9B3JuE8C-64">
          <mxGeometry relative="1" as="geometry" />
        </mxCell>
        <mxCell id="OIPn1_da_YWg9B3JuE8C-60" value="카카오계정으로 시작" style="whiteSpace=wrap;html=1;rounded=0;" vertex="1" parent="WIyWlLk6GJQsqaUBKTNV-1">
          <mxGeometry x="590" y="470" width="120" height="60" as="geometry" />
        </mxCell>
        <mxCell id="OIPn1_da_YWg9B3JuE8C-62" value="휴대전화로 시작" style="whiteSpace=wrap;html=1;rounded=0;" vertex="1" parent="WIyWlLk6GJQsqaUBKTNV-1">
          <mxGeometry x="740" y="380" width="120" height="60" as="geometry" />
        </mxCell>
        <mxCell id="OIPn1_da_YWg9B3JuE8C-67" value="" style="edgeStyle=orthogonalEdgeStyle;rounded=0;orthogonalLoop=1;jettySize=auto;html=1;" edge="1" parent="WIyWlLk6GJQsqaUBKTNV-1" source="OIPn1_da_YWg9B3JuE8C-64" target="OIPn1_da_YWg9B3JuE8C-66">
          <mxGeometry relative="1" as="geometry" />
        </mxCell>
        <mxCell id="OIPn1_da_YWg9B3JuE8C-64" value="카카오계정 로그인" style="whiteSpace=wrap;html=1;rounded=0;" vertex="1" parent="WIyWlLk6GJQsqaUBKTNV-1">
          <mxGeometry x="590" y="560" width="120" height="60" as="geometry" />
        </mxCell>
        <mxCell id="OIPn1_da_YWg9B3JuE8C-69" value="" style="edgeStyle=orthogonalEdgeStyle;rounded=0;orthogonalLoop=1;jettySize=auto;html=1;" edge="1" parent="WIyWlLk6GJQsqaUBKTNV-1" source="OIPn1_da_YWg9B3JuE8C-66" target="OIPn1_da_YWg9B3JuE8C-68">
          <mxGeometry relative="1" as="geometry" />
        </mxCell>
        <mxCell id="OIPn1_da_YWg9B3JuE8C-73" value="" style="edgeStyle=orthogonalEdgeStyle;rounded=0;orthogonalLoop=1;jettySize=auto;html=1;entryX=0.5;entryY=0;entryDx=0;entryDy=0;exitX=0;exitY=0.5;exitDx=0;exitDy=0;" edge="1" parent="WIyWlLk6GJQsqaUBKTNV-1" source="OIPn1_da_YWg9B3JuE8C-66" target="OIPn1_da_YWg9B3JuE8C-72">
          <mxGeometry relative="1" as="geometry">
            <Array as="points">
              <mxPoint x="490" y="690" />
            </Array>
          </mxGeometry>
        </mxCell>
        <mxCell id="OIPn1_da_YWg9B3JuE8C-66" value="계정정보 동의" style="rhombus;whiteSpace=wrap;html=1;rounded=0;" vertex="1" parent="WIyWlLk6GJQsqaUBKTNV-1">
          <mxGeometry x="610" y="650" width="80" height="80" as="geometry" />
        </mxCell>
        <mxCell id="OIPn1_da_YWg9B3JuE8C-71" value="" style="edgeStyle=orthogonalEdgeStyle;rounded=0;orthogonalLoop=1;jettySize=auto;html=1;" edge="1" parent="WIyWlLk6GJQsqaUBKTNV-1" source="OIPn1_da_YWg9B3JuE8C-68" target="OIPn1_da_YWg9B3JuE8C-70">
          <mxGeometry relative="1" as="geometry" />
        </mxCell>
        <mxCell id="OIPn1_da_YWg9B3JuE8C-68" value="약관 동의" style="rhombus;whiteSpace=wrap;html=1;rounded=0;" vertex="1" parent="WIyWlLk6GJQsqaUBKTNV-1">
          <mxGeometry x="610" y="760" width="80" height="80" as="geometry" />
        </mxCell>
        <mxCell id="OIPn1_da_YWg9B3JuE8C-108" value="" style="edgeStyle=orthogonalEdgeStyle;rounded=0;orthogonalLoop=1;jettySize=auto;html=1;" edge="1" parent="WIyWlLk6GJQsqaUBKTNV-1" source="OIPn1_da_YWg9B3JuE8C-70" target="OIPn1_da_YWg9B3JuE8C-107">
          <mxGeometry relative="1" as="geometry" />
        </mxCell>
        <mxCell id="OIPn1_da_YWg9B3JuE8C-70" value="카카오뱅크 시작" style="whiteSpace=wrap;html=1;rounded=0;" vertex="1" parent="WIyWlLk6GJQsqaUBKTNV-1">
          <mxGeometry x="590" y="870" width="120" height="60" as="geometry" />
        </mxCell>
        <mxCell id="OIPn1_da_YWg9B3JuE8C-72" value="END" style="ellipse;whiteSpace=wrap;html=1;rounded=0;" vertex="1" parent="WIyWlLk6GJQsqaUBKTNV-1">
          <mxGeometry x="440" y="720" width="100" height="60" as="geometry" />
        </mxCell>
        <mxCell id="OIPn1_da_YWg9B3JuE8C-75" value="" style="endArrow=classic;html=1;exitX=0;exitY=0.5;exitDx=0;exitDy=0;entryX=0.5;entryY=1;entryDx=0;entryDy=0;rounded=0;" edge="1" parent="WIyWlLk6GJQsqaUBKTNV-1" source="OIPn1_da_YWg9B3JuE8C-68" target="OIPn1_da_YWg9B3JuE8C-72">
          <mxGeometry width="50" height="50" relative="1" as="geometry">
            <mxPoint x="380" y="690" as="sourcePoint" />
            <mxPoint x="430" y="640" as="targetPoint" />
            <Array as="points">
              <mxPoint x="490" y="800" />
            </Array>
          </mxGeometry>
        </mxCell>
        <mxCell id="OIPn1_da_YWg9B3JuE8C-76" value="" style="endArrow=classic;html=1;exitX=0.5;exitY=1;exitDx=0;exitDy=0;entryX=1;entryY=0.5;entryDx=0;entryDy=0;rounded=0;" edge="1" parent="WIyWlLk6GJQsqaUBKTNV-1" source="OIPn1_da_YWg9B3JuE8C-62" target="OIPn1_da_YWg9B3JuE8C-68">
          <mxGeometry width="50" height="50" relative="1" as="geometry">
            <mxPoint x="470" y="660" as="sourcePoint" />
            <mxPoint x="520" y="610" as="targetPoint" />
            <Array as="points">
              <mxPoint x="800" y="800" />
            </Array>
          </mxGeometry>
        </mxCell>
        <mxCell id="OIPn1_da_YWg9B3JuE8C-77" value="F" style="text;html=1;strokeColor=none;fillColor=none;align=center;verticalAlign=middle;whiteSpace=wrap;rounded=0;" vertex="1" parent="WIyWlLk6GJQsqaUBKTNV-1">
          <mxGeometry x="550" y="670" width="40" height="20" as="geometry" />
        </mxCell>
        <mxCell id="OIPn1_da_YWg9B3JuE8C-78" value="F" style="text;html=1;strokeColor=none;fillColor=none;align=center;verticalAlign=middle;whiteSpace=wrap;rounded=0;" vertex="1" parent="WIyWlLk6GJQsqaUBKTNV-1">
          <mxGeometry x="545" y="780" width="40" height="20" as="geometry" />
        </mxCell>
        <mxCell id="OIPn1_da_YWg9B3JuE8C-79" value="T" style="text;html=1;strokeColor=none;fillColor=none;align=center;verticalAlign=middle;whiteSpace=wrap;rounded=0;" vertex="1" parent="WIyWlLk6GJQsqaUBKTNV-1">
          <mxGeometry x="650" y="730" width="40" height="20" as="geometry" />
        </mxCell>
        <mxCell id="OIPn1_da_YWg9B3JuE8C-80" value="T" style="text;html=1;strokeColor=none;fillColor=none;align=center;verticalAlign=middle;whiteSpace=wrap;rounded=0;" vertex="1" parent="WIyWlLk6GJQsqaUBKTNV-1">
          <mxGeometry x="650" y="840" width="40" height="20" as="geometry" />
        </mxCell>
        <mxCell id="OIPn1_da_YWg9B3JuE8C-81" value="" style="edgeStyle=orthogonalEdgeStyle;rounded=0;orthogonalLoop=1;jettySize=auto;html=1;" edge="1" parent="WIyWlLk6GJQsqaUBKTNV-1" source="OIPn1_da_YWg9B3JuE8C-83" target="OIPn1_da_YWg9B3JuE8C-86">
          <mxGeometry relative="1" as="geometry" />
        </mxCell>
        <mxCell id="OIPn1_da_YWg9B3JuE8C-82" value="" style="edgeStyle=orthogonalEdgeStyle;rounded=0;orthogonalLoop=1;jettySize=auto;html=1;entryX=0.5;entryY=0;entryDx=0;entryDy=0;" edge="1" parent="WIyWlLk6GJQsqaUBKTNV-1" source="OIPn1_da_YWg9B3JuE8C-83" target="OIPn1_da_YWg9B3JuE8C-87">
          <mxGeometry relative="1" as="geometry">
            <Array as="points">
              <mxPoint x="787" y="1090" />
            </Array>
          </mxGeometry>
        </mxCell>
        <mxCell id="OIPn1_da_YWg9B3JuE8C-83" value="초대 수락" style="rhombus;whiteSpace=wrap;html=1;" vertex="1" parent="WIyWlLk6GJQsqaUBKTNV-1">
          <mxGeometry x="610" y="1050" width="80" height="80" as="geometry" />
        </mxCell>
        <mxCell id="OIPn1_da_YWg9B3JuE8C-84" value="" style="edgeStyle=orthogonalEdgeStyle;rounded=0;orthogonalLoop=1;jettySize=auto;html=1;entryX=0;entryY=0.5;entryDx=0;entryDy=0;" edge="1" parent="WIyWlLk6GJQsqaUBKTNV-1" source="OIPn1_da_YWg9B3JuE8C-86" target="OIPn1_da_YWg9B3JuE8C-87">
          <mxGeometry relative="1" as="geometry">
            <Array as="points">
              <mxPoint x="740" y="1200" />
              <mxPoint x="740" y="1200" />
            </Array>
          </mxGeometry>
        </mxCell>
        <mxCell id="OIPn1_da_YWg9B3JuE8C-85" value="" style="edgeStyle=orthogonalEdgeStyle;rounded=0;orthogonalLoop=1;jettySize=auto;html=1;" edge="1" parent="WIyWlLk6GJQsqaUBKTNV-1" source="OIPn1_da_YWg9B3JuE8C-86">
          <mxGeometry relative="1" as="geometry">
            <mxPoint x="650" y="1270" as="targetPoint" />
          </mxGeometry>
        </mxCell>
        <mxCell id="OIPn1_da_YWg9B3JuE8C-86" value="초대&amp;nbsp;유효기간&lt;br&gt;이내인지?" style="rhombus;whiteSpace=wrap;html=1;" vertex="1" parent="WIyWlLk6GJQsqaUBKTNV-1">
          <mxGeometry x="600" y="1160" width="100" height="80" as="geometry" />
        </mxCell>
        <mxCell id="OIPn1_da_YWg9B3JuE8C-87" value="END" style="ellipse;whiteSpace=wrap;html=1;" vertex="1" parent="WIyWlLk6GJQsqaUBKTNV-1">
          <mxGeometry x="747" y="1175" width="80" height="50" as="geometry" />
        </mxCell>
        <mxCell id="OIPn1_da_YWg9B3JuE8C-88" value="F" style="text;html=1;strokeColor=none;fillColor=none;align=center;verticalAlign=middle;whiteSpace=wrap;rounded=0;" vertex="1" parent="WIyWlLk6GJQsqaUBKTNV-1">
          <mxGeometry x="707" y="1070" width="40" height="20" as="geometry" />
        </mxCell>
        <mxCell id="OIPn1_da_YWg9B3JuE8C-89" value="T" style="text;html=1;strokeColor=none;fillColor=none;align=center;verticalAlign=middle;whiteSpace=wrap;rounded=0;" vertex="1" parent="WIyWlLk6GJQsqaUBKTNV-1">
          <mxGeometry x="650" y="1130" width="40" height="20" as="geometry" />
        </mxCell>
        <mxCell id="OIPn1_da_YWg9B3JuE8C-90" value="F" style="text;html=1;strokeColor=none;fillColor=none;align=center;verticalAlign=middle;whiteSpace=wrap;rounded=0;" vertex="1" parent="WIyWlLk6GJQsqaUBKTNV-1">
          <mxGeometry x="707" y="1180" width="40" height="20" as="geometry" />
        </mxCell>
        <mxCell id="OIPn1_da_YWg9B3JuE8C-91" value="" style="edgeStyle=orthogonalEdgeStyle;rounded=0;orthogonalLoop=1;jettySize=auto;html=1;" edge="1" parent="WIyWlLk6GJQsqaUBKTNV-1" source="OIPn1_da_YWg9B3JuE8C-92" target="OIPn1_da_YWg9B3JuE8C-96">
          <mxGeometry relative="1" as="geometry" />
        </mxCell>
        <mxCell id="OIPn1_da_YWg9B3JuE8C-92" value="약관동의" style="rhombus;whiteSpace=wrap;html=1;" vertex="1" parent="WIyWlLk6GJQsqaUBKTNV-1">
          <mxGeometry x="610" y="1270" width="80" height="80" as="geometry" />
        </mxCell>
        <mxCell id="OIPn1_da_YWg9B3JuE8C-93" value="" style="endArrow=classic;html=1;exitX=1;exitY=0.5;exitDx=0;exitDy=0;entryX=0.5;entryY=1;entryDx=0;entryDy=0;rounded=0;" edge="1" parent="WIyWlLk6GJQsqaUBKTNV-1" source="OIPn1_da_YWg9B3JuE8C-92" target="OIPn1_da_YWg9B3JuE8C-87">
          <mxGeometry width="50" height="50" relative="1" as="geometry">
            <mxPoint x="460" y="1310" as="sourcePoint" />
            <mxPoint x="510" y="1260" as="targetPoint" />
            <Array as="points">
              <mxPoint x="787" y="1310" />
            </Array>
          </mxGeometry>
        </mxCell>
        <mxCell id="OIPn1_da_YWg9B3JuE8C-94" value="T" style="text;html=1;strokeColor=none;fillColor=none;align=center;verticalAlign=middle;whiteSpace=wrap;rounded=0;" vertex="1" parent="WIyWlLk6GJQsqaUBKTNV-1">
          <mxGeometry x="650" y="1240" width="40" height="20" as="geometry" />
        </mxCell>
        <mxCell id="OIPn1_da_YWg9B3JuE8C-95" value="" style="edgeStyle=orthogonalEdgeStyle;rounded=0;orthogonalLoop=1;jettySize=auto;html=1;" edge="1" parent="WIyWlLk6GJQsqaUBKTNV-1" source="OIPn1_da_YWg9B3JuE8C-96" target="OIPn1_da_YWg9B3JuE8C-98">
          <mxGeometry relative="1" as="geometry" />
        </mxCell>
        <mxCell id="OIPn1_da_YWg9B3JuE8C-96" value="인증하기" style="whiteSpace=wrap;html=1;" vertex="1" parent="WIyWlLk6GJQsqaUBKTNV-1">
          <mxGeometry x="590" y="1380" width="120" height="60" as="geometry" />
        </mxCell>
        <mxCell id="OIPn1_da_YWg9B3JuE8C-97" value="" style="edgeStyle=orthogonalEdgeStyle;rounded=0;orthogonalLoop=1;jettySize=auto;html=1;" edge="1" parent="WIyWlLk6GJQsqaUBKTNV-1" source="OIPn1_da_YWg9B3JuE8C-98" target="OIPn1_da_YWg9B3JuE8C-101">
          <mxGeometry relative="1" as="geometry" />
        </mxCell>
        <mxCell id="OIPn1_da_YWg9B3JuE8C-98" value="가입 완료" style="whiteSpace=wrap;html=1;" vertex="1" parent="WIyWlLk6GJQsqaUBKTNV-1">
          <mxGeometry x="590" y="1470" width="120" height="60" as="geometry" />
        </mxCell>
        <mxCell id="OIPn1_da_YWg9B3JuE8C-99" value="T" style="text;html=1;strokeColor=none;fillColor=none;align=center;verticalAlign=middle;whiteSpace=wrap;rounded=0;" vertex="1" parent="WIyWlLk6GJQsqaUBKTNV-1">
          <mxGeometry x="650" y="1350" width="40" height="20" as="geometry" />
        </mxCell>
        <mxCell id="OIPn1_da_YWg9B3JuE8C-100" value="F" style="text;html=1;strokeColor=none;fillColor=none;align=center;verticalAlign=middle;whiteSpace=wrap;rounded=0;" vertex="1" parent="WIyWlLk6GJQsqaUBKTNV-1">
          <mxGeometry x="710" y="1290" width="40" height="20" as="geometry" />
        </mxCell>
        <mxCell id="OIPn1_da_YWg9B3JuE8C-101" value="END" style="ellipse;whiteSpace=wrap;html=1;rounded=0;" vertex="1" parent="WIyWlLk6GJQsqaUBKTNV-1">
          <mxGeometry x="590" y="1560" width="120" height="80" as="geometry" />
        </mxCell>
        <mxCell id="OIPn1_da_YWg9B3JuE8C-102" value="" style="edgeStyle=orthogonalEdgeStyle;rounded=0;orthogonalLoop=1;jettySize=auto;html=1;exitX=0.5;exitY=1;exitDx=0;exitDy=0;exitPerimeter=0;" edge="1" parent="WIyWlLk6GJQsqaUBKTNV-1" source="OIPn1_da_YWg9B3JuE8C-103" target="OIPn1_da_YWg9B3JuE8C-86">
          <mxGeometry relative="1" as="geometry">
            <mxPoint x="350" y="1220" as="sourcePoint" />
            <Array as="points">
              <mxPoint x="360" y="1200" />
            </Array>
          </mxGeometry>
        </mxCell>
        <mxCell id="OIPn1_da_YWg9B3JuE8C-103" value="초대정보" style="shape=cylinder3;whiteSpace=wrap;html=1;boundedLbl=1;backgroundOutline=1;size=15;" vertex="1" parent="WIyWlLk6GJQsqaUBKTNV-1">
          <mxGeometry x="320" y="880" width="80" height="70" as="geometry" />
        </mxCell>
        <mxCell id="OIPn1_da_YWg9B3JuE8C-109" value="" style="edgeStyle=orthogonalEdgeStyle;rounded=0;orthogonalLoop=1;jettySize=auto;html=1;" edge="1" parent="WIyWlLk6GJQsqaUBKTNV-1" source="OIPn1_da_YWg9B3JuE8C-107">
          <mxGeometry relative="1" as="geometry">
            <mxPoint x="650" y="1050" as="targetPoint" />
          </mxGeometry>
        </mxCell>
        <mxCell id="OIPn1_da_YWg9B3JuE8C-107" value="초대 메세지" style="rounded=0;whiteSpace=wrap;html=1;" vertex="1" parent="WIyWlLk6GJQsqaUBKTNV-1">
          <mxGeometry x="590" y="960" width="120" height="60" as="geometry" />
        </mxCell>
        <mxCell id="OIPn1_da_YWg9B3JuE8C-110" value="" style="edgeStyle=orthogonalEdgeStyle;rounded=0;orthogonalLoop=1;jettySize=auto;html=1;entryX=0.5;entryY=1;entryDx=0;entryDy=0;entryPerimeter=0;exitX=0;exitY=0.5;exitDx=0;exitDy=0;" edge="1" parent="WIyWlLk6GJQsqaUBKTNV-1" target="OIPn1_da_YWg9B3JuE8C-111" source="OIPn1_da_YWg9B3JuE8C-98">
          <mxGeometry relative="1" as="geometry">
            <mxPoint x="170" y="1180" as="sourcePoint" />
            <mxPoint x="480" y="850" as="targetPoint" />
          </mxGeometry>
        </mxCell>
        <mxCell id="OIPn1_da_YWg9B3JuE8C-111" value="멤버정보" style="shape=cylinder3;whiteSpace=wrap;html=1;boundedLbl=1;backgroundOutline=1;size=15;" vertex="1" parent="WIyWlLk6GJQsqaUBKTNV-1">
          <mxGeometry x="50" y="815" width="80" height="70" as="geometry" />
        </mxCell>
        <mxCell id="OIPn1_da_YWg9B3JuE8C-112" value="" style="endArrow=classic;html=1;exitX=0.5;exitY=0;exitDx=0;exitDy=0;exitPerimeter=0;entryX=0;entryY=0.5;entryDx=0;entryDy=0;rounded=0;" edge="1" parent="WIyWlLk6GJQsqaUBKTNV-1" source="OIPn1_da_YWg9B3JuE8C-111">
          <mxGeometry width="50" height="50" relative="1" as="geometry">
            <mxPoint x="330" y="680" as="sourcePoint" />
            <mxPoint x="160" y="600" as="targetPoint" />
            <Array as="points">
              <mxPoint x="90" y="600" />
            </Array>
          </mxGeometry>
        </mxCell>
        <mxCell id="OIPn1_da_YWg9B3JuE8C-113" value="" style="endArrow=classic;html=1;exitX=1;exitY=0.5;exitDx=0;exitDy=0;entryX=0.5;entryY=0;entryDx=0;entryDy=0;entryPerimeter=0;rounded=0;" edge="1" parent="WIyWlLk6GJQsqaUBKTNV-1" source="OIPn1_da_YWg9B3JuE8C-42" target="OIPn1_da_YWg9B3JuE8C-103">
          <mxGeometry width="50" height="50" relative="1" as="geometry">
            <mxPoint x="340" y="860" as="sourcePoint" />
            <mxPoint x="400" y="1140" as="targetPoint" />
            <Array as="points">
              <mxPoint x="360" y="600" />
            </Array>
          </mxGeometry>
        </mxCell>
      </root>
    </mxGraphModel>
  </diagram>
</mxfile>
